<svg xmlns="http://www.w3.org/2000/svg" xmlns:xlink="http://www.w3.org/1999/xlink">
  <symbol
    id="footer-main-facebook"
    viewBox="-3 -3 24 24"
    fill="none" customFrame="#000000">
    <path id="Vector"
          d="M12.402 18L12.402 11.034L14.735 11.034L15.084 8.326L12.402 8.326L12.402 6.598C12.402 5.814 12.62 5.279 13.744 5.279L15.178 5.279L15.178 2.857C14.4838 2.78334 13.7861 2.74762 13.088 2.75C11.021 2.75 9.606 4.012 9.606 6.33L9.606 8.326L7.268 8.326L7.268 11.034L9.606 11.034L9.606 18L1 18C0.734784 18 0.48043 17.8946 0.292893 17.7071C0.105357 17.5196 4.44089e-16 17.2652 0 17L0 1C0 0.734784 0.105357 0.48043 0.292893 0.292893C0.48043 0.105357 0.734784 4.44089e-16 1 0L17 0C17.2652 4.44089e-16 17.5196 0.105357 17.7071 0.292893C17.8946 0.48043 18 0.734784 18 1L18 17C18 17.2652 17.8946 17.5196 17.7071 17.7071C17.5196 17.8946 17.2652 18 17 18L12.402 18Z"
          fill="currentColor" fill-rule="nonzero"/>
  </symbol>
</svg>
