<svg xmlns="http://www.w3.org/2000/svg">
  <symbol id="header-basket" viewBox="0 0 24 24"  width="24.000000" height="24.000000" fill="none">
    <rect id="shopping-cart" width="24.000000" height="24.000000" x="0.000000" y="0.000000" fill="rgb(255,255,255)"
          fill-opacity="0"/>
    <path id="Vector"
          d="M8.33337 20.3334C7.78109 20.3334 7.33337 19.8857 7.33337 19.3334C7.33337 18.7811 7.78109 18.3334 8.33337 18.3334C8.88566 18.3334 9.33337 18.7811 9.33337 19.3334C9.33337 19.8857 8.88566 20.3334 8.33337 20.3334Z"
          stroke="currentColor" stroke-linecap="round" stroke-linejoin="round" stroke-width="2"/>
    <path id="Vector"
          d="M18.4166 20.3334C17.8643 20.3334 17.4166 19.8857 17.4166 19.3334C17.4166 18.7811 17.8643 18.3334 18.4166 18.3334C18.9689 18.3334 19.4166 18.7811 19.4166 19.3334C19.4166 19.8857 18.9689 20.3334 18.4166 20.3334Z"
          stroke="currentColor" stroke-linecap="round" stroke-linejoin="round" stroke-width="2"/>
    <path id="Vector"
          d="M0.916626 0.916626L4.91663 0.916626L7.59663 14.3066C7.68807 14.767 7.93853 15.1806 8.30417 15.4749C8.66981 15.7693 9.12732 15.9256 9.59663 15.9166L19.3166 15.9166C19.7859 15.9256 20.2434 15.7693 20.6091 15.4749C20.9747 15.1806 21.2252 14.767 21.3166 14.3066L22.9166 5.91663L5.91663 5.91663"
          fill-rule="nonzero" stroke="currentColor" stroke-linecap="round" stroke-linejoin="round" stroke-width="2"/>
  </symbol>
</svg>
